<svg width="128" height="128" viewBox="0 0 128 128" fill="none" xmlns="http://www.w3.org/2000/svg">
<g clip-path="url(#clip0_8455_212)">
<rect width="128" height="128" rx="24" fill="#0088CC"/>
<path d="M64 128C99.3462 128 128 99.3462 128 64C128 28.6538 99.3462 0 64 0C28.6538 0 0 28.6538 0 64C0 99.3462 28.6538 128 64 128Z" fill="#0088CC"/>
<path fill-rule="evenodd" clip-rule="evenodd" d="M46.1708 42.2857H82.0566C83.428 42.2857 84.5708 42.5143 85.9423 43.2C87.5423 43.8857 88.4566 45.0286 88.9137 45.9428C88.9137 45.9428 88.9137 46.1714 89.1423 46.1714C89.828 47.3143 90.2851 48.6857 90.2851 50.2857C90.2851 51.6571 90.0566 53.0286 89.1423 54.4L66.5137 93.2571C66.0566 94.1714 65.1423 94.6286 63.9994 94.6286C63.0851 94.6286 62.1708 94.1714 61.4851 93.2571L39.3137 54.4C38.8566 53.4857 37.9423 52.3428 37.9423 50.5143C37.7137 48.9143 38.1708 47.5429 38.8566 46.1714C39.5423 44.8 40.6851 43.6571 42.2851 43.2C43.6566 42.2857 45.2566 42.2857 46.1708 42.2857ZM61.2566 47.7714H46.1708C45.2566 47.7714 44.7994 47.7714 44.5708 48C44.1137 48.2286 43.8851 48.4571 43.6566 48.9143C43.428 49.1428 43.428 49.6 43.428 50.0571C43.428 50.2857 43.6566 50.5143 44.1137 51.4286L61.2566 81.1428V47.7714ZM66.7423 47.7714V81.3714L84.1137 51.4286C84.3423 50.9714 84.3423 50.5143 84.3423 50.0571C84.3423 49.6 84.3423 49.1428 84.1137 48.9143C83.8851 48.6857 83.8851 48.4571 83.6566 48.4571L83.428 48.2286C82.9708 48 82.5137 48 81.828 48H66.7423V47.7714Z" fill="white"/>
</g>
<defs>
<clipPath id="clip0_8455_212">
<rect width="128" height="128" rx="24" fill="white"/>
</clipPath>
</defs>
</svg>
